<svg width="1757" height="177" viewBox="0 0 1757 177" fill="none" xmlns="http://www.w3.org/2000/svg">
<path d="M15.936 43.4C15.936 57.704 26.592 67.112 38.88 67.112C48.384 67.112 55.296 62.984 59.904 57.512V71.048C54.336 75.656 48.288 78.152 38.496 78.152C18.72 78.152 3.648 63.848 3.648 43.4C3.648 22.952 18.72 8.55199 38.496 8.55199C48.288 8.55199 54.336 11.048 59.904 15.752V29.192C55.296 23.72 48.384 19.688 38.88 19.688C26.592 19.688 15.936 29.096 15.936 43.4ZM70.023 43.4C70.023 23.336 84.999 8.55199 104.871 8.55199C124.935 8.55199 139.815 23.336 139.815 43.4C139.815 63.464 125.127 78.44 104.871 78.44C84.711 78.44 70.023 63.464 70.023 43.4ZM82.023 43.4C82.023 57.224 91.527 67.304 104.871 67.304C118.311 67.304 127.719 57.224 127.719 43.4C127.719 29.576 118.407 19.496 104.871 19.496C91.527 19.496 82.023 29.576 82.023 43.4ZM150.926 9.8H162.254V35.72H173.966C177.23 19.688 190.862 8.55199 208.142 8.55199C228.206 8.55199 243.086 23.336 243.086 43.4C243.086 63.464 228.302 78.44 208.142 78.44C188.846 78.44 174.542 64.808 173.294 46.184H162.254V77H150.926V9.8ZM185.294 43.4C185.294 57.224 194.798 67.304 208.142 67.304C221.486 67.304 230.99 57.224 230.99 43.4C230.99 29.576 221.582 19.496 208.142 19.496C194.798 19.496 185.294 29.576 185.294 43.4ZM278.24 78.152C260.672 78.152 251.936 68.84 251.936 57.8H263.36C263.84 64.232 268.832 68.36 278.048 68.36C287.264 68.36 292.064 64.52 292.064 57.8C292.064 50.6 285.44 46.472 274.688 46.472V38.024C284.768 38.024 290.144 33.416 290.144 27.656C290.144 22.184 286.112 18.344 278.336 18.344C270.656 18.344 265.472 22.28 265.472 27.656H254.816C254.816 16.616 263.84 8.744 278.336 8.744C293.216 8.744 301.568 17 301.568 26.888C301.568 33.704 296.672 38.984 288.896 41.864C297.728 44.36 303.488 49.832 303.488 58.952C303.488 70.568 294.464 78.152 278.24 78.152ZM15.936 132.4C15.936 146.704 26.592 156.112 38.88 156.112C48.384 156.112 55.296 151.984 59.904 146.512V160.048C54.336 164.656 48.288 167.152 38.496 167.152C18.72 167.152 3.648 152.848 3.648 132.4C3.648 111.952 18.72 97.552 38.496 97.552C48.288 97.552 54.336 100.048 59.904 104.752V118.192C55.296 112.72 48.384 108.688 38.88 108.688C26.592 108.688 15.936 118.096 15.936 132.4ZM70.023 132.4C70.023 112.336 84.999 97.552 104.871 97.552C124.935 97.552 139.815 112.336 139.815 132.4C139.815 152.464 125.127 167.44 104.871 167.44C84.711 167.44 70.023 152.464 70.023 132.4ZM82.023 132.4C82.023 146.224 91.527 156.304 104.871 156.304C118.311 156.304 127.719 146.224 127.719 132.4C127.719 118.576 118.407 108.496 104.871 108.496C91.527 108.496 82.023 118.576 82.023 132.4ZM203.246 98.8V166H191.726V109.264H164.942V140.752C164.942 155.824 158.51 166 144.398 166V156.304C150.446 156.304 153.806 149.488 153.806 139.984V98.8H203.246ZM229.562 98.8V143.344L278.618 95.44V166H267.482V121.456L218.426 169.36V98.8H229.562ZM350.733 166H300.813V176.56H289.965V155.824H299.373L325.773 95.44L352.077 155.824H361.485V176.56H350.733V166ZM325.773 118.288L311.661 155.824H339.789L325.773 118.288ZM421.903 166L414.127 148.72H389.455L381.775 166H369.007L401.839 95.056L434.767 166H421.903ZM401.839 117.808L392.719 139.12H411.055L401.839 117.808ZM442.488 98.8H462.744C477.336 98.8 486.936 106.768 486.936 119.632C486.936 132.496 477.336 140.56 462.744 140.56H453.816V166H442.488V98.8ZM462.744 108.784H453.816V130.576H462.744C470.52 130.576 475.704 126.832 475.704 119.632C475.704 112.528 470.52 108.784 462.744 108.784ZM497.988 98.8H509.316V124.72H543.108V98.8H554.436V166H543.108V135.184H509.316V166H497.988V98.8ZM565.586 132.4C565.586 112.336 580.562 97.552 600.434 97.552C620.498 97.552 635.378 112.336 635.378 132.4C635.378 152.464 620.69 167.44 600.434 167.44C580.274 167.44 565.586 152.464 565.586 132.4ZM577.586 132.4C577.586 146.224 587.09 156.304 600.434 156.304C613.874 156.304 623.282 146.224 623.282 132.4C623.282 118.576 613.97 108.496 600.434 108.496C587.09 108.496 577.586 118.576 577.586 132.4ZM663.672 78.64H671.544C671.544 81.52 673.56 85.264 679.128 85.264C684.6 85.264 686.616 81.52 686.616 78.64H694.488C694.488 85.744 689.208 92.272 679.128 92.272C669.048 92.272 663.672 85.744 663.672 78.64ZM657.624 98.8V143.344L706.68 95.44V166H695.544V121.456L646.488 169.36V98.8H657.624ZM762.937 125.104L758.329 166H746.617L755.833 95.44L783.385 141.04L811.033 95.44L820.249 166H808.537L803.833 125.104L783.385 159.76L762.937 125.104ZM824.617 132.4C824.617 112.336 839.593 97.552 859.465 97.552C879.529 97.552 894.409 112.336 894.409 132.4C894.409 152.464 879.721 167.44 859.465 167.44C839.305 167.44 824.617 152.464 824.617 132.4ZM836.617 132.4C836.617 146.224 846.121 156.304 859.465 156.304C872.905 156.304 882.313 146.224 882.313 132.4C882.313 118.576 873.001 108.496 859.465 108.496C846.121 108.496 836.617 118.576 836.617 132.4ZM957.839 98.8V166H946.319V109.264H919.535V140.752C919.535 155.824 913.103 166 898.991 166V156.304C905.039 156.304 908.399 149.488 908.399 139.984V98.8H957.839ZM969.179 132.4C969.179 112.336 984.155 97.552 1004.03 97.552C1024.09 97.552 1038.97 112.336 1038.97 132.4C1038.97 152.464 1024.28 167.44 1004.03 167.44C983.867 167.44 969.179 152.464 969.179 132.4ZM981.179 132.4C981.179 146.224 990.683 156.304 1004.03 156.304C1017.47 156.304 1026.88 146.224 1026.88 132.4C1026.88 118.576 1017.56 108.496 1004.03 108.496C990.683 108.496 981.179 118.576 981.179 132.4ZM1104.3 166H1054.38V176.56H1043.53V155.824H1052.94L1079.34 95.44L1105.64 155.824H1115.05V176.56H1104.3V166ZM1079.34 118.288L1065.22 155.824H1093.35L1079.34 118.288ZM1126.86 98.8H1167.76V108.784H1138V125.104H1165.84V134.896H1138V156.016H1167.76V166H1126.86V98.8ZM1189.58 98.8L1215.4 127.6V98.8H1227.02V127.504L1251.88 98.8H1265.8L1237.19 130.288L1267.24 166H1253.32L1227.02 133.648V166H1215.4V133.552L1188.14 166H1174.51L1204.55 130.288L1175.95 98.8H1189.58ZM1286.03 98.8V143.344L1335.09 95.44V166H1323.95V121.456L1274.89 169.36V98.8H1286.03Z" fill="white"/>
</svg>
